<svg width="193" height="182" viewBox="0 0 193 182" fill="none" xmlns="http://www.w3.org/2000/svg">
<g clip-path="url(#clip0_1_155)">
<path d="M102.751 85.5104C85.1479 85.6206 70.8838 82.842 70.8838 73.8454C70.8838 69.6199 76.8988 63.9576 84.2542 63.9576C93.2766 63.9576 100.517 74.9618 102.751 85.5154V85.5104Z" fill="green"/>
<path d="M154.038 0.090119C153.978 0.0300414 153.858 0.0200285 153.647 0.015022C152.311 -0.0200232 150.976 0.0300414 149.64 0.0300414H84.671C81.9597 0.0300414 79.2535 0.0300414 76.5423 0.0300414C73.831 0.0300414 71.1549 -0.0600749 68.4738 0.14519C65.858 0.345449 63.2723 0.871127 60.7819 1.7022C58.2916 2.53327 56.0724 3.60466 53.9235 4.9514C51.7746 6.29813 49.8717 7.83011 48.1295 9.59239C46.3823 11.3597 44.8358 13.3272 43.5355 15.4449C42.22 17.5927 41.1606 19.8907 40.3824 22.2838C38.9966 26.5543 38.8159 30.975 38.8209 35.4307C38.8209 36.0866 38.8209 36.7424 38.8209 37.3983V72.3935C38.8209 76.2334 38.8209 80.0484 39.5791 83.8282C40.3021 87.4279 41.5422 90.9174 43.2493 94.1666C44.9212 97.3407 47.035 100.279 49.5102 102.878C51.9805 105.471 54.8122 107.724 57.895 109.546C59.4615 110.473 61.0882 111.289 62.7702 111.985C63.6488 112.35 64.5375 112.68 65.4362 112.981C66.2848 113.261 67.2337 113.712 68.1374 113.727C69.0412 113.742 70.0052 113.456 70.8939 113.301C71.8428 113.131 72.7917 112.956 73.7407 112.771C75.6335 112.405 77.5163 112.005 79.3991 111.584C83.1547 110.738 86.8851 109.787 90.5403 108.57C94.1302 107.374 97.7602 106.002 101.139 104.295C102.45 103.634 104.498 102.698 104.995 101.186C105.241 100.44 104.975 99.5686 104.769 98.8376C104.659 98.4421 104.548 98.2819 104.122 98.3019C103.65 98.327 103.178 98.397 102.711 98.4421C98.8748 98.8276 94.9385 98.7876 91.0876 98.7125C87.2818 98.6324 83.4609 98.2769 79.7656 97.3207C76.3766 96.4445 73.0578 95.0427 70.3416 92.8098C67.6253 90.577 65.8178 87.7984 64.8287 84.5492C63.7392 80.9645 63.7995 77.1897 64.3668 73.5199C64.9241 69.9253 66.0588 66.4057 67.7659 63.1866C69.4177 60.0726 71.6219 57.314 74.2628 54.981C76.8586 52.693 79.866 50.6905 83.2651 49.8394C86.6642 48.9883 90.3445 49.4388 93.5076 51.0659C96.5552 52.638 99.0204 55.1412 101.034 57.8747C103.208 60.8185 104.925 64.0878 106.381 67.4371C107.887 70.8915 109.173 74.4511 110.157 78.0858C111.141 81.7205 111.844 85.5755 112.235 89.3904C112.627 93.1953 112.788 97.0553 112.592 100.88C112.406 104.605 111.783 108.35 109.88 111.619C109.419 112.41 108.861 113.121 108.344 113.872C108.128 114.182 108.259 114.227 108.605 114.348C109.705 114.728 110.97 114.793 112.12 114.878C113.772 115.003 115.438 114.968 117.09 114.953C119.018 114.933 120.931 114.818 122.839 114.528C126.504 113.967 130.079 112.851 133.413 111.224C135.04 110.428 136.606 109.516 138.097 108.49C138.851 107.969 139.599 107.429 140.317 106.858C140.638 106.603 140.979 106.467 140.708 106.087C140.462 105.742 140.151 105.426 139.875 105.106C137.395 102.252 135.16 99.168 133.072 96.019C130.993 92.8799 129.085 89.6307 127.358 86.2914C125.611 82.9121 124.049 79.4426 122.673 75.898C121.288 72.3184 120.088 68.6687 119.069 64.9689C118.049 61.2691 117.211 57.5193 116.543 53.7394C115.865 49.9295 115.363 46.0895 115.012 42.2395C114.66 38.3746 114.464 34.4945 114.404 30.6145C114.349 26.7345 114.429 22.8495 114.635 18.9745C114.736 17.1071 114.861 15.2447 115.022 13.3823C115.182 11.5199 115.268 9.68751 115.564 7.87517C115.775 10.7939 115.74 13.7227 115.991 16.6415C116.242 19.5703 116.608 22.489 117.095 25.3928C117.577 28.2515 118.18 31.0851 118.918 33.8938C119.651 36.6924 120.51 39.4509 121.509 42.1644C122.493 44.8479 123.612 47.4813 124.863 50.0496C126.103 52.5979 127.473 55.0861 128.975 57.4942C130.466 59.8873 132.077 62.2053 133.81 64.4332C135.547 66.6711 137.405 68.8189 139.363 70.8715C141.321 72.9242 143.379 74.8717 145.528 76.7241C147.677 78.5765 150.032 80.2737 152.286 82.0459C152.728 82.3914 153.205 82.892 153.762 83.0372C154.119 82.2762 153.993 81.1097 154.038 80.2887C154.094 79.2673 154.099 78.246 154.099 77.2247C154.099 75.1971 154.099 73.1745 154.099 71.1469V52.8733C154.099 51.862 154.099 50.8507 154.099 49.8394C154.099 49.3437 154.099 48.8431 154.104 48.3474C154.109 47.8518 153.948 47.5314 153.747 47.0908C152.095 43.4511 150.353 39.8615 148.415 36.362C146.487 32.8875 144.439 29.458 142.184 26.1838C141.923 25.8083 141.612 25.4328 141.421 25.0173C142.37 25.4579 143.219 26.2088 144.042 26.8397C144.921 27.5105 145.779 28.2064 146.638 28.9073C148.325 30.2841 149.972 31.716 151.538 33.2229C152.387 34.039 153.15 35.0653 154.094 35.7662C154.279 34.4895 154.104 33.1027 154.104 31.8161C154.104 30.4693 154.104 29.1176 154.104 27.7709V11.585C154.104 8.88648 154.129 6.18799 154.104 3.49451C154.099 2.82865 154.079 2.1678 154.084 1.50194C154.084 1.17652 154.094 0.851102 154.109 0.525681C154.119 0.285371 154.124 0.160209 154.049 0.0951254L154.038 0.090119ZM81.5731 36.8426C77.2301 32.7323 72.8821 29.1777 68.4236 25.3978C71.4361 21.4026 74.4386 17.5126 77.446 14.0682C82.02 17.4025 86.4785 21.4026 90.8215 25.9485C88.3713 29.9487 85.3638 33.6234 81.5681 36.8426H81.5731Z" fill="green"/>
<path d="M14.3746 168.748C11.7638 168.748 9.54958 168.372 7.73205 167.626C5.91452 166.88 4.42836 165.899 3.27357 164.683C2.11878 163.466 1.28533 162.089 0.773204 160.557C0.261082 159.02 0.00502014 157.463 0.00502014 155.886C0.00502014 153.884 0.346435 151.971 1.03429 150.159C1.71712 148.347 2.66103 146.759 3.85598 145.393C5.05094 144.026 6.48689 142.95 8.1538 142.164C9.82071 141.373 11.6633 140.982 13.6717 140.982C15.5093 140.982 17.1913 141.292 18.7075 141.908C20.2238 142.529 21.5292 143.4 22.6238 144.532C23.7133 145.663 24.5468 147.005 25.1241 148.562C25.7015 150.119 25.9877 151.836 25.9877 153.713V161.328H30.5416C31.1391 161.328 31.5759 161.499 31.8571 161.839C32.1332 162.179 32.2738 162.585 32.2738 163.056V166.961C32.2738 167.301 32.1332 167.687 31.8571 168.112C31.5759 168.538 31.1391 168.753 30.5416 168.753H14.3746V168.748ZM4.62417 133.302C4.62417 132.281 4.98567 131.405 5.71368 130.679C6.4417 129.953 7.36051 129.592 8.47513 129.592C9.58975 129.592 10.5086 129.953 11.2366 130.679C11.9646 131.405 12.3261 132.276 12.3261 133.302C12.3261 134.328 11.9646 135.2 11.2366 135.926C10.5086 136.651 9.58975 137.012 8.47513 137.012C7.36051 137.012 6.4417 136.651 5.71368 135.926C4.98567 135.2 4.62417 134.328 4.62417 133.302ZM18.6774 161.323V155.631C18.6774 153.198 18.2155 151.335 17.2967 150.034C16.3779 148.732 15.0172 148.081 13.2248 148.081C12.4566 148.081 11.7186 148.241 11.0106 148.562C10.3027 148.882 9.6751 149.328 9.11779 149.904C8.56048 150.479 8.11363 151.175 7.77222 151.981C7.4308 152.792 7.26009 153.708 7.26009 154.73C7.26009 155.926 7.45088 156.938 7.83749 157.769C8.22409 158.6 8.73621 159.286 9.37888 159.816C10.0215 160.352 10.7596 160.733 11.5931 160.968C12.4265 161.203 13.2951 161.318 14.1938 161.318H18.6875L18.6774 161.323ZM14.6357 133.302C14.6357 132.281 14.9972 131.405 15.7252 130.679C16.4532 129.953 17.372 129.592 18.4866 129.592C19.6013 129.592 20.5201 129.953 21.2481 130.679C21.9761 131.405 22.3376 132.276 22.3376 133.302C22.3376 134.328 21.9761 135.2 21.2481 135.926C20.5201 136.651 19.6013 137.012 18.4866 137.012C17.372 137.012 16.4532 136.651 15.7252 135.926C14.9972 135.2 14.6357 134.328 14.6357 133.302Z" fill="green"/>
<path d="M30.155 168.748C29.427 168.748 28.96 168.578 28.7441 168.237C28.5333 167.897 28.4228 167.511 28.4228 167.086V163.311C28.4228 162.84 28.5634 162.395 28.8395 161.969C29.1207 161.544 29.5575 161.328 30.155 161.328H36.3155C37.2544 161.328 37.887 161.028 38.2084 160.432C38.5297 159.836 38.6904 159.025 38.6904 157.999V122.939H46.071V155.441C46.071 157.148 46.4676 158.555 47.2559 159.661C48.0492 160.773 49.5353 161.323 51.7144 161.323H53.9587C54.6867 161.323 55.1536 161.494 55.3695 161.834C55.5804 162.174 55.6908 162.58 55.6908 163.051V166.956C55.6908 167.296 55.5503 167.682 55.2741 168.107C54.9929 168.533 54.5561 168.748 53.9587 168.748H51.4583C49.6207 168.748 48.1295 168.312 46.9998 167.436C45.8651 166.56 45.0015 165.594 44.399 164.527C43.671 165.934 42.6468 166.991 41.3213 167.697C39.9958 168.402 38.4343 168.753 36.6369 168.753H30.155V168.748Z" fill="green"/>
<path d="M53.5771 168.748C52.8491 168.748 52.3821 168.578 52.1662 168.237C51.9554 167.897 51.8449 167.511 51.8449 167.086V163.311C51.8449 162.84 51.9855 162.395 52.2616 161.969C52.5428 161.544 52.9796 161.328 53.5771 161.328H59.7376C60.6765 161.328 61.3091 161.028 61.6305 160.432C61.9518 159.836 62.1125 159.025 62.1125 157.999V143.285H69.4278V155.441C69.4278 157.148 69.8345 158.555 70.6478 159.661C71.4612 160.773 72.9373 161.323 75.0762 161.323H77.3205C78.0485 161.323 78.5155 161.494 78.7313 161.834C78.9422 162.174 79.0527 162.58 79.0527 163.051V166.956C79.0527 167.296 78.9121 167.682 78.636 168.107C78.3548 168.533 77.918 168.748 77.3205 168.748H74.8804C72.9976 168.748 71.4913 168.302 70.3566 167.406C69.2219 166.51 68.3584 165.529 67.7559 164.462C67.0278 165.699 66.0136 166.725 64.7082 167.531C63.4028 168.342 61.8514 168.748 60.059 168.748H53.5771ZM56.9109 176.778C56.9109 175.747 57.2724 174.876 58.0004 174.165C58.7284 173.454 59.6472 173.099 60.7619 173.099C61.8765 173.099 62.7903 173.454 63.5183 174.165C64.2463 174.876 64.6078 175.747 64.6078 176.778C64.6078 177.81 64.2463 178.746 63.5183 179.457C62.7903 180.168 61.8715 180.523 60.7619 180.523C59.6523 180.523 58.7284 180.168 58.0004 179.457C57.2724 178.746 56.9109 177.855 56.9109 176.778ZM66.8571 176.778C66.8571 175.747 67.2186 174.876 67.9466 174.165C68.6747 173.454 69.5935 173.099 70.7081 173.099C71.8227 173.099 72.7365 173.454 73.4645 174.165C74.1925 174.876 74.554 175.747 74.554 176.778C74.554 177.81 74.1925 178.746 73.4645 179.457C72.7365 180.168 71.8177 180.523 70.7081 180.523C69.5985 180.523 68.6747 180.168 67.9466 179.457C67.2186 178.746 66.8571 177.855 66.8571 176.778Z" fill="green"/>
<path d="M76.9942 168.748C76.3113 168.748 75.8394 168.578 75.5833 168.237C75.3272 167.897 75.1967 167.511 75.1967 167.086V163.311C75.1967 162.84 75.3473 162.395 75.6436 161.969C75.9448 161.544 76.3917 161.328 76.9891 161.328H87.6383C88.3211 161.328 88.7931 161.499 89.0491 161.839C89.3052 162.179 89.4357 162.585 89.4357 163.056V166.961C89.4357 167.301 89.2951 167.687 89.019 168.112C88.7378 168.538 88.301 168.753 87.7035 168.753H76.9891L76.9942 168.748Z" fill="green"/>
<path d="M87.3922 168.748C86.7094 168.748 86.2375 168.578 85.9814 168.237C85.7253 167.897 85.5948 167.511 85.5948 167.086V163.311C85.5948 162.84 85.7454 162.395 86.0416 161.969C86.3429 161.544 86.7898 161.328 87.3872 161.328H98.6138C99.5978 161.328 100.261 161.073 100.602 160.562C100.943 160.052 101.114 159.261 101.114 158.194V149.238H108.299V155.446C108.299 157.068 108.706 158.455 109.519 159.606C110.332 160.758 111.829 161.333 114.013 161.333H115.167C116.151 161.333 116.794 161.033 117.09 160.437C117.392 159.841 117.537 159.03 117.537 158.004V146.744H124.918V155.446C124.918 157.153 125.324 158.56 126.138 159.666C126.951 160.778 128.427 161.328 130.566 161.328H132.108C133.137 161.328 133.81 161.028 134.131 160.432C134.452 159.836 134.613 159.025 134.613 157.999V143.285H141.863V155.441C141.863 157.148 142.26 158.555 143.048 159.661C143.841 160.773 145.302 161.323 147.446 161.323H150.077C150.76 161.323 151.232 161.494 151.488 161.834C151.744 162.174 151.875 162.58 151.875 163.051V166.956C151.875 167.296 151.734 167.682 151.458 168.107C151.177 168.533 150.74 168.748 150.142 168.748H147.446C145.523 168.748 143.992 168.322 142.857 167.466C141.722 166.615 140.859 165.634 140.256 164.522C139.528 165.889 138.439 166.931 136.983 167.656C135.527 168.382 133.905 168.743 132.108 168.743H130.375C128.452 168.743 126.941 168.317 125.852 167.461C124.762 166.61 123.939 165.649 123.381 164.583C122.568 165.989 121.458 167.036 120.048 167.717C118.637 168.397 117.136 168.738 115.554 168.738H113.887C112.049 168.738 110.563 168.312 109.429 167.456C108.294 166.605 107.45 165.644 106.893 164.578C106.08 165.984 104.935 167.031 103.459 167.712C101.983 168.392 100.346 168.733 98.5485 168.733H87.3822L87.3922 168.748Z" fill="green"/>
<path d="M149.821 168.748C149.138 168.748 148.666 168.578 148.41 168.237C148.154 167.897 148.024 167.511 148.024 167.086V163.311C148.024 162.84 148.174 162.395 148.47 161.969C148.772 161.544 149.219 161.328 149.816 161.328H160.465C161.148 161.328 161.62 161.499 161.876 161.839C162.132 162.179 162.263 162.585 162.263 163.056V166.961C162.263 167.301 162.122 167.687 161.846 168.112C161.565 168.538 161.128 168.753 160.53 168.753H149.816L149.821 168.748Z" fill="green"/>
<path d="M193 168.748H160.149C159.506 168.748 159.059 168.578 158.803 168.237C158.547 167.897 158.417 167.511 158.417 167.086V163.311C158.417 162.84 158.557 162.395 158.833 161.969C159.115 161.544 159.551 161.328 160.149 161.328H168.554C168.212 160.858 167.846 160.082 167.464 158.995C167.078 157.909 166.887 156.512 166.887 154.805C166.887 153.098 167.228 151.35 167.916 149.688C168.599 148.026 169.563 146.554 170.803 145.273C172.043 143.991 173.539 142.96 175.297 142.169C177.049 141.378 178.997 140.987 181.136 140.987C182.973 140.987 184.62 141.287 186.076 141.883C187.527 142.479 188.772 143.325 189.797 144.411C190.826 145.498 191.614 146.81 192.172 148.347C192.729 149.884 193.005 151.591 193.005 153.463V168.753L193 168.748ZM185.619 161.328V153.138C185.619 152.542 185.524 151.946 185.333 151.345C185.142 150.75 184.831 150.204 184.404 149.713C183.978 149.223 183.43 148.827 182.768 148.532C182.105 148.231 181.327 148.086 180.428 148.086C179.615 148.086 178.836 148.246 178.088 148.567C177.34 148.887 176.677 149.333 176.1 149.909C175.523 150.484 175.051 151.18 174.689 151.986C174.328 152.797 174.142 153.713 174.142 154.735C174.142 156.272 174.453 157.478 175.071 158.349C175.688 159.226 176.366 159.896 177.094 160.367C177.907 160.878 178.892 161.198 180.046 161.328H185.629H185.619ZM177.149 133.307C177.149 132.286 177.521 131.41 178.264 130.684C179.007 129.958 179.906 129.597 180.97 129.597C182.035 129.597 182.999 129.958 183.737 130.684C184.48 131.41 184.851 132.281 184.851 133.307C184.851 134.333 184.48 135.205 183.737 135.931C182.994 136.656 182.07 137.017 180.97 137.017C179.871 137.017 179.007 136.656 178.264 135.931C177.521 135.205 177.149 134.333 177.149 133.307Z" fill="green"/>
<path d="M138.996 177.719L121.288 182L122.116 179.056L139.825 174.781L138.996 177.719Z" fill="green"/>
</g>
<defs>
<clipPath id="clip0_1_155">
<rect width="193" height="182" fill="white"/>
</clipPath>
</defs>
</svg>
