<svg width="212" height="248" viewBox="0 0 212 248" fill="none" xmlns="http://www.w3.org/2000/svg">
<path d="M37.3803 240.646C4.2804 194.681 2.45981 172.502 9.7228 161.064C17.3344 149.103 32.7707 149.471 37.942 136.85C44.7401 120.255 17.2957 104.901 22.9705 91.8732C27.1927 82.1799 42.1836 88.3061 59.8472 75.1426C76.9104 62.4443 74.8574 47.8462 85.1999 46.3146C101.159 43.9495 111.366 77.9924 131.296 76.3058C140.302 75.5303 140.786 68.3572 151.458 66.4961C166.449 63.8789 185.41 74.5804 192.944 90.71C202.415 111.008 167.979 128.727 175.087 147.804C180.045 161.122 196.973 158.059 203.887 171.455C213.61 190.26 194.029 223.218 174.506 239.502L37.3997 240.646H37.3803Z" fill="#01B763" fill-opacity="0.1"/>
<path d="M195.617 247.955H16.8501C13.8868 247.955 11.4658 245.551 11.4658 242.566C11.4658 239.599 13.8674 237.176 16.8501 237.176H195.636C198.599 237.176 201.02 239.58 201.02 242.566C201.02 245.532 198.619 247.955 195.636 247.955H195.617Z" fill="#01B763"/>
<path opacity="0.2" d="M45.8828 189.369C45.8828 189.369 46.9093 225.971 50.5117 229.324C54.1142 232.678 57.7166 232.426 102.282 232.426C146.848 232.426 161.006 233.454 163.582 227.522C166.158 221.589 169.509 196.328 169.509 196.328V228.82L167.959 233.725L162.672 238.107H53.5912L47.161 233.59L45.2242 226.106L45.8634 189.369H45.8828Z" fill="black"/>
<path d="M79.3119 22.2558C76.0774 21.6549 72.843 21.5192 69.5504 21.8875C68.9887 21.9457 68.6789 22.3722 68.6014 22.8181C68.4271 23.167 68.4077 23.6129 68.737 24.0006C70.0927 25.6097 72.9204 25.2995 74.7991 25.2608C76.4454 25.222 78.9633 25.4546 79.9123 23.768C80.2028 23.2252 79.9704 22.3722 79.2925 22.2558H79.3119Z" fill="#F5F5F5"/>
<path d="M58.6075 22.4303C56.845 21.81 54.8114 22.314 53.2619 23.3609C51.8674 23.8068 50.6472 24.7373 50.8797 26.2689C51.0346 27.3158 52.0417 27.9943 53.0682 27.7423C54.424 27.4321 55.2956 25.9781 56.6707 25.5903C57.7166 25.2995 59.0529 25.7067 59.6146 24.4659C60.0213 23.5548 59.479 22.7211 58.6075 22.4303Z" fill="#F5F5F5"/>
<path d="M204.545 132.682C203.499 132.643 202.454 132.876 201.524 133.302C201.078 133.341 200.652 133.458 200.265 133.729C196.488 136.385 195.481 142.259 199.18 145.516C202.841 148.734 209.077 147.416 210.917 142.841C212.699 138.382 209.484 132.837 204.545 132.682Z" fill="#D0F0F9"/>
<path d="M18.632 118.278C13.2477 114.905 4.93885 120.081 1.14272 123.842C-0.174299 125.141 0.077485 126.769 0.987781 127.874C0.406741 129.231 0.309902 130.666 1.04589 132.12C2.34354 134.718 5.67484 134.892 7.99899 133.748C10.5168 132.508 11.7951 129.89 14.1193 128.514C16.2885 127.234 18.8644 127.738 20.4526 125.354C22.0602 122.931 20.9755 119.751 18.632 118.278Z" fill="#D0F0F9"/>
<path d="M26.786 45.8106C25.2559 45.1515 23.474 45.3453 22.5637 46.9157C22.4669 47.0707 22.3894 47.2452 22.3313 47.4391C21.1111 48.2727 20.3945 50.2695 21.3629 51.5684C22.2151 52.7123 23.261 53.5265 24.7523 53.5847C25.9531 53.6234 27.1152 53.2163 27.948 52.3439C29.7105 50.4828 29.2651 46.8963 26.786 45.83V45.8106Z" fill="#D0F0F9"/>
<path d="M201.989 42.0108C200.091 38.2498 192.421 34.547 188.915 37.9202C188.044 37.7264 187.075 37.9202 186.262 38.7926C184.364 40.7895 183.918 43.5618 185.061 46.082C186.243 48.7574 188.915 50.2308 191.607 51.0256C194.571 51.898 198.038 51.9368 200.478 49.7849C202.744 47.8074 203.364 44.7056 201.989 42.0108Z" fill="#D0F0F9"/>
<path d="M107.279 25.8424C108.19 25.8618 109.119 26.7729 109.177 27.7423C109.236 28.7698 108.519 29.6809 107.512 29.8166C106.408 29.9523 105.381 29.0993 105.323 27.9749C105.265 26.928 106.272 25.8424 107.279 25.8618V25.8424Z" fill="#FFEDD2"/>
<path d="M107.105 31.5808C109.197 31.6584 110.92 30.0105 110.959 27.9168C110.998 25.8618 109.274 24.0782 107.241 24.0588C105.323 24.0588 103.677 25.6485 103.58 27.626C103.464 29.7973 104.994 31.5033 107.105 31.5808ZM114.271 30.0493C112.334 33.8878 108.713 34.8959 104.626 33.5001C101.876 32.5695 99.6677 30.8829 98.3313 28.3626C97.4791 26.7536 96.4139 26.4046 94.7676 26.4046C83.9603 26.4434 73.1529 26.3658 62.3456 26.3852C56.7289 26.3852 52.8359 30.3789 52.8359 35.9622V128.262H52.7972C52.7972 158.544 52.7972 188.806 52.8165 219.088C52.8165 221.046 52.9521 223.063 53.3976 224.982C54.211 228.588 56.1284 230.177 59.8084 230.526C61.3965 230.701 62.9847 230.662 64.5729 230.662C86.6911 230.74 108.79 230.778 130.908 230.856C137.939 230.875 144.989 231.03 152.019 231.069C156.203 231.089 159.534 229.538 161.51 225.641C162.362 223.993 162.517 222.248 162.517 220.445C162.497 188.477 162.517 156.528 162.517 124.559C162.517 95.2853 162.517 66.0115 162.556 36.7377C162.556 34.5858 162.265 32.6083 160.929 30.8441C158.876 28.1494 156.3 26.7148 152.794 26.7342C142.084 26.7923 131.373 26.7729 120.663 26.6178C117.719 26.5791 115.762 27.0831 114.271 30.0493ZM168.947 32.1043C168.966 64.7707 168.947 97.4372 168.947 130.104H168.715C168.715 162.46 168.715 194.836 168.715 227.211C168.715 228.084 168.715 228.995 168.598 229.887C168.037 234.132 164.86 237.137 160.599 237.176C153.162 237.254 145.725 237.176 138.287 237.176C111.811 237.137 85.316 237.118 58.84 237.098C57.5617 237.098 56.264 237.099 54.9664 237.04C51.577 236.924 49.1753 235.257 47.7034 232.252C46.4832 229.79 46.2701 227.134 46.2701 224.42C46.3282 202.765 46.3863 181.129 46.4251 159.494C46.4832 130.995 46.5413 102.517 46.5994 74.0182C46.6188 59.9241 46.6381 45.83 46.6381 31.7165C46.6381 28.731 47.3548 26.0362 49.1172 23.6323C50.6667 21.4804 52.7584 20.2978 55.4312 20.2396C57.6004 20.2009 59.789 20.2396 61.9776 20.2396C84.0958 20.2396 106.214 20.2396 128.332 20.2784C138.636 20.2784 148.959 20.5692 159.263 20.2396C163.272 20.1233 168.114 24.3496 168.637 28.2851C168.811 29.5646 168.947 30.8441 168.947 32.1237V32.1043Z" fill="#01B763"/>
<path d="M160.754 36.6213C160.793 50.2308 160.754 63.8208 160.754 77.4108C160.754 124.966 160.735 172.502 160.735 220.038C160.735 222.054 160.658 223.974 159.418 225.719C158.217 227.405 156.803 228.704 154.653 228.917C153.182 229.072 151.71 229.266 150.218 229.266C135.247 229.266 120.275 229.227 105.304 229.15C91.1265 229.092 76.9491 228.975 62.7718 228.879C62.0745 228.879 61.3773 228.879 60.68 228.84C56.9226 228.588 55.2957 227.173 54.7728 223.431C54.5404 221.686 54.5597 219.864 54.5597 218.1C54.5597 188.225 54.5597 158.35 54.5597 128.475H54.5791C54.5791 97.9025 54.5791 67.3298 54.5985 36.7764C54.5985 35.3224 54.7147 33.7327 55.2957 32.4532C56.4772 29.836 58.6851 28.382 61.6097 28.1882C62.3069 28.1494 63.0042 28.1494 63.7014 28.1494C73.6178 28.1494 83.5342 28.2269 93.4506 28.1494C95.2325 28.13 96.3752 28.5953 97.363 30.1074C99.1061 32.7828 101.605 34.5082 104.684 35.3806C108.964 36.602 112.547 35.4581 115.24 31.9685C115.608 31.5033 115.995 31.0186 116.189 30.4758C116.867 28.4983 118.3 28.2075 120.178 28.2657C124.149 28.382 128.1 28.3045 132.09 28.3432C138.927 28.4014 145.764 28.4983 152.6 28.5759C157.733 28.634 160.735 31.5227 160.754 36.6601V36.6213Z" fill="#B3D3DD"/>
<path d="M110.959 27.9167C110.921 30.0105 109.177 31.6584 107.105 31.5808C104.994 31.5033 103.483 29.7973 103.58 27.6259C103.677 25.6679 105.323 24.0588 107.241 24.0588C109.274 24.0588 110.998 25.8618 110.959 27.9167ZM105.304 27.9555C105.362 29.0799 106.408 29.9523 107.492 29.7972C108.5 29.6615 109.216 28.7504 109.158 27.7229C109.1 26.7535 108.19 25.8618 107.26 25.823C106.234 25.823 105.246 26.8893 105.304 27.9361V27.9555Z" fill="#3C3372"/>
<path d="M160.754 77.4302C160.754 63.8402 160.793 50.2501 160.754 36.6407C160.754 31.5033 157.733 28.6147 152.6 28.5565C145.763 28.479 138.907 28.382 132.09 28.3239C128.119 28.2851 124.149 28.3626 120.178 28.2463C118.319 28.1882 116.866 28.479 116.189 30.4564C115.995 30.9992 115.608 31.4839 115.24 31.9492C112.528 35.4581 108.964 36.5826 104.684 35.3612C101.604 34.4888 99.106 32.744 97.3629 30.088C96.3945 28.5953 95.2518 28.1106 93.4505 28.13C83.5341 28.2075 73.6177 28.1494 63.7013 28.13C63.0041 28.13 62.3068 28.13 61.6096 28.1688C58.685 28.3626 56.477 29.8166 55.2956 32.4338C54.7339 33.7133 54.6177 35.3031 54.5983 36.757C54.5596 67.3104 54.579 97.8831 54.579 128.456H54.5596C54.5596 158.331 54.5596 188.205 54.5596 218.08C54.5596 219.864 54.5402 221.667 54.7727 223.412C55.2762 227.153 56.9225 228.568 60.6799 228.82C61.3771 228.859 62.055 228.859 62.7716 228.859C76.949 228.956 91.1264 229.053 105.304 229.131C120.275 229.208 135.247 229.247 150.218 229.247C151.69 229.247 153.162 229.053 154.653 228.898C156.803 228.685 158.217 227.386 159.418 225.699C160.638 223.954 160.735 222.035 160.735 220.019C160.735 172.483 160.735 124.947 160.754 77.3914V77.4302ZM52.8165 219.088C52.7971 188.806 52.7971 158.544 52.7971 128.262H52.8359V35.9622C52.8359 30.3788 56.7288 26.4046 62.3455 26.3852C73.1529 26.3658 83.9602 26.4434 94.7676 26.4046C96.4138 26.4046 97.4791 26.7535 98.3313 28.3626C99.6677 30.8829 101.876 32.5889 104.626 33.5001C108.713 34.8765 112.354 33.8878 114.271 30.0493C115.762 27.0831 117.719 26.5791 120.663 26.6178C131.354 26.7729 142.084 26.7923 152.794 26.7342C156.3 26.7342 158.876 28.1494 160.929 30.8441C162.246 32.5889 162.556 34.5664 162.556 36.7377C162.517 66.0115 162.536 95.2853 162.517 124.559C162.517 156.528 162.517 188.477 162.517 220.445C162.517 222.248 162.362 223.993 161.51 225.641C159.515 229.557 156.183 231.089 152.019 231.069C144.989 231.03 137.939 230.875 130.908 230.856C108.79 230.778 86.6911 230.74 64.5729 230.662C62.9847 230.662 61.3965 230.682 59.8083 230.526C56.1478 230.177 54.2304 228.588 53.3975 224.982C52.9521 223.082 52.8359 221.066 52.8165 219.088Z" fill="#3C3372"/>
<path d="M55.4119 20.2203C52.7391 20.259 50.6667 21.461 49.0979 23.6129C47.3354 26.0169 46.5994 28.731 46.6188 31.6971C46.6188 45.8106 46.6188 59.9047 46.5801 73.9988C46.5413 102.497 46.4638 130.976 46.4057 159.474C46.367 181.129 46.3089 202.765 46.2508 224.4C46.2508 227.095 46.4638 229.77 47.684 232.232C49.1754 235.237 51.577 236.905 54.947 237.021C56.2447 237.06 57.523 237.06 58.8206 237.079C85.2967 237.098 111.792 237.118 138.268 237.157C145.705 237.157 153.143 237.234 160.58 237.157C164.841 237.118 168.017 234.113 168.579 229.867C168.695 228.995 168.695 228.084 168.695 227.192C168.695 194.816 168.695 162.46 168.695 130.084H168.928C168.928 97.4178 168.928 64.7513 168.928 32.0849C168.928 30.8054 168.792 29.5064 168.618 28.2463C168.095 24.3108 163.253 20.0845 159.244 20.2009C148.94 20.5304 138.617 20.2396 128.313 20.2396C106.195 20.2203 84.0765 20.2203 61.9582 20.2009C59.7697 20.2009 57.5811 20.1621 55.4119 20.2009V20.2203ZM56.3996 238.805C55.0245 238.805 53.6106 238.746 52.313 238.359C48.3232 237.176 46.1152 234.229 45.1662 230.313C44.8369 228.995 44.7207 227.58 44.7014 226.203C44.7014 198.209 44.682 170.234 44.7014 142.24C44.7401 105.521 44.8176 68.8032 44.8563 32.0849C44.8563 28.479 45.6504 25.2026 47.8583 22.3334C49.8726 19.7162 52.5067 18.4173 55.7992 18.4173C90.5067 18.4755 125.195 18.5336 159.902 18.5918C165.132 18.5918 169.915 23.1282 170.419 28.8085C170.748 32.5695 170.651 36.3305 170.632 40.1109C170.632 54.3019 170.593 68.493 170.574 82.684C170.574 98.2708 170.574 113.858 170.574 129.425H170.438V223.489C170.438 225.486 170.516 227.463 170.4 229.441C170.225 232.368 168.928 234.772 166.758 236.691C165.073 238.184 163.137 239.037 160.812 238.979C156.842 238.863 152.872 238.863 148.901 238.863C118.067 238.843 87.2335 238.824 56.3996 238.785V238.805Z" fill="#3C3372"/>
<mask id="mask0_3_626" style="mask-type:luminance" maskUnits="userSpaceOnUse" x="54" y="28" width="107" height="202">
<path d="M160.754 36.6213C160.793 50.2308 160.754 63.8208 160.754 77.4108C160.754 124.966 160.735 172.502 160.735 220.038C160.735 222.054 160.658 223.974 159.418 225.719C158.217 227.405 156.803 228.704 154.653 228.917C153.182 229.072 151.71 229.266 150.218 229.266C135.247 229.266 120.275 229.227 105.304 229.15C91.1265 229.092 76.9491 228.975 62.7718 228.879C62.0745 228.879 61.3773 228.879 60.68 228.84C56.9226 228.588 55.2957 227.173 54.7728 223.431C54.5404 221.686 54.5597 219.864 54.5597 218.1C54.5597 188.225 54.5597 158.35 54.5597 128.475H54.5791C54.5791 97.9025 54.5791 67.3298 54.5985 36.7764C54.5985 35.3224 54.7147 33.7327 55.2957 32.4532C56.4772 29.836 58.6851 28.382 61.6097 28.1882C62.3069 28.1494 63.0042 28.1494 63.7014 28.1494C73.6178 28.1494 83.5342 28.2269 93.4506 28.1494C95.2325 28.13 96.3752 28.5953 97.363 30.1074C99.1061 32.7828 101.605 34.5082 104.684 35.3806C108.964 36.602 112.547 35.4581 115.24 31.9685C115.608 31.5033 115.995 31.0186 116.189 30.4758C116.867 28.4983 118.3 28.2075 120.178 28.2657C124.149 28.382 128.1 28.3045 132.09 28.3432C138.927 28.4014 145.764 28.4983 152.6 28.5759C157.733 28.634 160.735 31.5227 160.754 36.6601V36.6213Z" fill="white"/>
</mask>
<g mask="url(#mask0_3_626)">
<path d="M37.2883 147.25L35.8599 150.518L180.083 213.678L181.512 210.41L37.2883 147.25Z" fill="#4F9BA3"/>
<path d="M42.8622 96.2971L41.4337 99.5651L185.657 162.726L187.086 159.458L42.8622 96.2971Z" fill="#4F9BA3"/>
<path d="M133.325 97.3303L131.897 100.598L276.12 163.759L277.549 160.491L133.325 97.3303Z" fill="#4F9BA3"/>
<path d="M-44.0241 22.277L-45.4525 25.545L98.7711 88.7054L100.2 85.4374L-44.0241 22.277Z" fill="#4F9BA3"/>
<path d="M183.139 -21.2171L52.8916 67.2846L54.8932 70.236L185.141 -18.2658L183.139 -21.2171Z" fill="#4F9BA3"/>
<path d="M180.401 152.216L73.2595 267.665L75.8705 270.092L183.012 154.644L180.401 152.216Z" fill="#4F9BA3"/>
<path d="M13.4608 143.093L85.4323 115.04L86.7493 118.375L14.7585 146.427L13.4608 143.093Z" fill="#4F9BA3"/>
<path d="M142.8 139.836C129.804 134.097 116.789 128.378 103.793 122.64C114.349 115.486 124.885 108.332 135.44 101.179C136.951 100.151 136.68 97.9413 134.937 97.3597C123.549 93.4823 112.16 89.605 100.772 85.7277C110.649 80.28 120.527 74.8324 130.385 69.3654C132.748 68.0665 130.637 64.4412 128.274 65.7594C117.041 71.9632 105.807 78.1669 94.5547 84.3706C92.889 85.2818 93.4119 87.647 95.0582 88.1898C106.621 92.1253 118.164 96.0608 129.727 99.9962C119.307 107.072 108.868 114.148 98.4476 121.225C97.2855 122.019 96.8982 124.152 98.4476 124.831C111.54 130.608 124.633 136.366 137.707 142.143C118.125 157.303 98.5251 172.463 78.9441 187.643C76.0001 189.931 73.0562 192.199 70.1122 194.487C67.9818 196.135 70.9644 199.081 73.0755 197.453C93.5088 181.633 113.942 165.814 134.395 149.975C137.339 147.687 140.282 145.419 143.226 143.131C144.234 142.356 143.943 140.34 142.8 139.836Z" fill="#F5F5F5"/>
<g opacity="0.1">
<path d="M160.309 -16.3472L0.206787 117.553L15.4069 135.762L175.509 1.86237L160.309 -16.3472Z" fill="#F5F5F5"/>
<path d="M185.035 8.38819L24.9335 142.288L31.5401 150.203L191.642 16.3028L185.035 8.38819Z" fill="#F5F5F5"/>
<path d="M189.109 43.4666L29.0074 177.366L47.9331 200.039L208.035 66.1393L189.109 43.4666Z" fill="url(#paint0_linear_3_626)"/>
<path d="M199.21 94.4786L39.1077 228.378L44.0502 234.3L204.152 100.4L199.21 94.4786Z" fill="url(#paint1_linear_3_626)"/>
<path d="M204.854 108.413L44.7524 242.313L49.695 248.234L209.797 114.334L204.854 108.413Z" fill="#F5F5F5"/>
<path d="M211.42 125.33L51.3186 259.23L66.7919 277.766L226.894 143.867L211.42 125.33Z" fill="#F5F5F5"/>
</g>
</g>
<path d="M71.4873 197.298C70.6158 197.298 69.8992 196.58 69.8992 195.708V176.186C69.8992 175.313 70.6158 174.596 71.4873 174.596C72.3589 174.596 73.0755 175.313 73.0755 176.186V195.708C73.0755 196.58 72.3589 197.298 71.4873 197.298Z" fill="#3C3372"/>
<path d="M81.2294 168.935C81.2294 174.325 76.8716 178.687 71.4873 178.687C66.103 178.687 61.7452 174.325 61.7452 168.935C61.7452 163.546 66.103 159.184 71.4873 159.184C76.8716 159.184 81.2294 163.546 81.2294 168.935Z" fill="#E50027"/>
<path d="M77.4914 168.935C77.4914 172.25 74.7993 174.945 71.4874 174.945C68.1754 174.945 65.4833 172.25 65.4833 168.935C65.4833 165.62 68.1754 162.925 71.4874 162.925C74.7993 162.925 77.4914 165.62 77.4914 168.935Z" fill="#F5F5F5"/>
<path d="M134.22 66.8257C134.22 68.6674 131.974 70.1796 129.204 70.1796C126.434 70.1796 124.188 68.6868 124.188 66.8257C124.188 64.9646 126.434 63.4718 129.204 63.4718C131.974 63.4718 134.22 64.9646 134.22 66.8257Z" fill="#F6CA7F"/>
<path d="M76.0775 196.658C76.0775 198.5 73.8309 200.012 71.0612 200.012C68.2916 200.012 66.0449 198.519 66.0449 196.658C66.0449 194.797 68.2916 193.304 71.0612 193.304C73.8309 193.304 76.0775 194.797 76.0775 196.658Z" fill="#F6CA7F"/>
<path d="M85.4904 21.9263C85.0836 21.8487 84.6769 21.7712 84.2702 21.6936C83.7085 21.5773 83.2824 21.9069 83.1081 22.314C82.9144 22.5273 82.7982 22.8181 82.8563 23.167C83.1275 25.1057 85.8777 25.0863 86.207 23.1864C86.3038 22.663 86.0714 22.0426 85.4904 21.9263Z" fill="#F5F5F5"/>
<path d="M157.423 22.8568C157.249 22.3722 156.92 22.1589 156.435 22.1008C155.331 21.965 154.247 22.062 153.182 22.3334C152 22.1977 150.857 22.4303 150.218 23.6129C149.928 24.1364 150.141 25.0281 150.838 25.1251C152.174 25.3383 158.566 25.7842 157.442 22.8568H157.423Z" fill="#F5F5F5"/>
<g clip-path="url(#clip0_3_626)">
<path d="M139.382 30.2463C127.788 28.8985 117.271 37.2252 115.923 48.8189C115.467 52.7418 116.109 56.686 117.793 60.2187L131.104 89.0315C131.331 89.5194 131.719 89.8486 132.201 89.9757C132.854 90.158 133.623 89.9634 134.085 89.3427L153.727 64.1121C156.063 61.1178 157.514 57.4881 157.954 53.7051C159.302 42.1115 150.976 31.5941 139.382 30.2463ZM135.717 61.7699C129.833 61.0858 125.763 55.7847 126.431 50.0404C127.103 44.261 132.381 40.0823 138.16 40.7542C143.94 41.426 148.118 46.7041 147.446 52.4836C146.783 58.1928 141.671 62.4621 135.717 61.7699Z" fill="#FD003A"/>
<path d="M139.382 30.2463L138.16 40.7542C143.94 41.426 148.118 46.7041 147.446 52.4836C146.783 58.1928 141.671 62.4621 135.717 61.7698L132.432 90.0232C133.029 90.1066 133.676 89.8915 134.085 89.3427L153.727 64.1121C156.063 61.1178 157.514 57.4881 157.954 53.7051C159.302 42.1115 150.976 31.5941 139.382 30.2463Z" fill="#E50027"/>
</g>
<path d="M62.946 0H10.6137C4.7519 0 0 4.75647 0 10.6239V78.8454C0 84.7128 4.7519 89.4693 10.6137 89.4693H62.946C68.8077 89.4693 73.5596 84.7128 73.5596 78.8454V10.6239C73.5596 4.75647 68.8077 0 62.946 0Z" fill="#AEB1B0"/>
<path d="M63.6432 40.8089H32.7125C31.568 40.8089 30.6401 41.7376 30.6401 42.8832V43.174C30.6401 44.3197 31.568 45.2484 32.7125 45.2484H63.6432C64.7877 45.2484 65.7156 44.3197 65.7156 43.174V42.8832C65.7156 41.7376 64.7877 40.8089 63.6432 40.8089Z" fill="#F5F5F5"/>
<path d="M55.0438 30.5921H41.3119C40.1673 30.5921 39.2395 31.5208 39.2395 32.6665V32.9573C39.2395 34.1029 40.1673 35.0316 41.3119 35.0316H55.0438C56.1883 35.0316 57.1162 34.1029 57.1162 32.9573V32.6665C57.1162 31.5208 56.1883 30.5921 55.0438 30.5921Z" fill="#F5F5F5"/>
<path d="M63.6432 51.045H32.7125C31.568 51.045 30.6401 51.9737 30.6401 53.1194V53.4102C30.6401 54.5558 31.568 55.4845 32.7125 55.4845H63.6432C64.7877 55.4845 65.7156 54.5558 65.7156 53.4102V53.1194C65.7156 51.9737 64.7877 51.045 63.6432 51.045Z" fill="#F5F5F5"/>
<path d="M63.6432 61.2617H32.7125C31.568 61.2617 30.6401 62.1905 30.6401 63.3361V63.6269C30.6401 64.7726 31.568 65.7013 32.7125 65.7013H63.6432C64.7877 65.7013 65.7156 64.7726 65.7156 63.6269V63.3361C65.7156 62.1905 64.7877 61.2617 63.6432 61.2617Z" fill="#F5F5F5"/>
<path d="M63.6432 71.4979H32.7125C31.568 71.4979 30.6401 72.4266 30.6401 73.5723V73.8631C30.6401 75.0087 31.568 75.9374 32.7125 75.9374H63.6432C64.7877 75.9374 65.7156 75.0087 65.7156 73.8631V73.5723C65.7156 72.4266 64.7877 71.4979 63.6432 71.4979Z" fill="#F5F5F5"/>
<path d="M60.5637 4.84666H13.2477C9.60012 4.84666 6.64319 7.80644 6.64319 11.4575V12.2911C6.64319 15.9422 9.60012 18.902 13.2477 18.902H60.5637C64.2112 18.902 67.1682 15.9422 67.1682 12.2911V11.4575C67.1682 7.80644 64.2112 4.84666 60.5637 4.84666Z" fill="#F5F5F5"/>
<path d="M16.8501 75.3558V30.2238C17.896 29.8166 18.632 28.8085 18.632 27.6066C18.632 26.0556 17.3731 24.7955 15.8236 24.7955C14.2742 24.7955 13.0153 26.0556 13.0153 27.6066C13.0153 28.7891 13.7512 29.8166 14.7971 30.2238V75.3558C13.7512 75.763 13.0153 76.7711 13.0153 77.973C13.0153 79.524 14.2742 80.7841 15.8236 80.7841C17.3731 80.7841 18.632 79.524 18.632 77.973C18.632 76.7904 17.896 75.763 16.8501 75.3558Z" fill="#F5F5F5"/>
<path d="M22.0795 17.2347L19.4455 12.6789C20.7431 12.136 21.6534 10.8565 21.6534 9.36375C21.6534 7.38631 20.0459 5.77722 18.0703 5.77722C16.0948 5.77722 14.4873 7.38631 14.4873 9.36375C14.4873 10.8565 15.3975 12.136 16.6952 12.6789L14.0612 17.2347H22.0601H22.0795Z" fill="#AEB1B0"/>
<defs>
<linearGradient id="paint0_linear_3_626" x1="208.035" y1="66.1393" x2="100.277" y2="17.9611" gradientUnits="userSpaceOnUse">
<stop stop-color="#01B763"/>
<stop offset="1" stop-color="#14E685"/>
</linearGradient>
<linearGradient id="paint1_linear_3_626" x1="204.152" y1="100.4" x2="179.192" y2="77.2618" gradientUnits="userSpaceOnUse">
<stop stop-color="#01B763"/>
<stop offset="1" stop-color="#14E685"/>
</linearGradient>
<clipPath id="clip0_3_626">
<rect width="60.1806" height="60.1806" fill="white" transform="translate(109.493 26.7716) rotate(6.63104)"/>
</clipPath>
</defs>
</svg>
