<svg width="206" height="206" viewBox="0 0 206 206" fill="none" xmlns="http://www.w3.org/2000/svg">
<g clip-path="url(#clip0_3_493)">
<path d="M0.0985776 16.3452C-0.640126 11.7034 2.86107 7.46427 7.55924 7.31299C23.7556 6.79115 59.5525 8.24764 84.1522 28.5668C93.5574 36.3353 97.6565 45.3256 99.1492 53.424C103.425 76.6227 86.275 97.3949 62.6791 97.5772C54.4444 97.6408 44.8416 95.3136 35.4364 87.5452C10.8367 67.226 2.64541 32.3484 0.0985776 16.3452Z" fill="#9BD069"/>
<path d="M99.1492 53.424C97.6565 45.3252 93.5574 36.3353 84.1522 28.5668C59.5525 8.24764 23.7556 6.79115 7.55923 7.31299C2.86146 7.46427 -0.640134 11.7034 0.0985687 16.3452C0.265541 17.3953 0.457057 18.5263 0.675932 19.7293C18.2149 19.6082 50.5573 22.2617 73.3155 41.06C82.7207 48.8284 86.8197 57.8188 88.3124 65.9172C89.9468 74.784 88.4512 83.296 84.662 90.4396C95.7365 82.3742 101.91 68.4053 99.1492 53.424Z" fill="#7DBE3B"/>
<path d="M205.807 42.9373C206.742 39.181 204.17 35.4545 200.326 34.9975C187.074 33.4211 157.599 32.0785 135.974 47.0066C127.706 52.7139 123.706 59.7999 121.907 66.3392C116.754 85.0708 129.353 103.33 148.701 105.153C155.453 105.789 163.497 104.56 171.765 98.8526C193.39 83.9245 202.583 55.888 205.807 42.9373Z" fill="#9BD069"/>
<path d="M200.326 34.9975C198.209 34.7464 196.086 34.5469 193.96 34.3992C190.208 48.2112 180.86 73.7025 160.601 87.688C152.333 93.3952 144.289 94.624 137.537 93.9879C132.835 93.5449 128.532 92.1311 124.785 89.9757C129.523 98.2189 138.099 104.154 148.701 105.152C155.453 105.788 163.497 104.559 171.765 98.8522C193.39 83.9241 202.583 55.8875 205.807 42.9373C206.742 39.181 204.17 35.4549 200.326 34.9975Z" fill="#7DBE3B"/>
<path d="M40.7639 42.7901C40.9755 42.9257 62.0732 56.475 73.4583 68.9565C91.569 88.8117 101.533 114.742 101.516 141.972L101.495 176.247H107.749L107.734 150.826C107.72 128.538 115.875 107.314 130.698 91.0633C140.696 80.1018 152.852 71.2615 166.828 64.787C167.198 64.6154 167.531 64.3725 167.808 64.0723C168.084 63.772 168.299 63.4202 168.44 63.0369C168.58 62.6537 168.644 62.2465 168.627 61.8386C168.61 61.4307 168.513 61.0302 168.342 60.6598C168.17 60.2894 167.927 59.9564 167.627 59.6798C167.327 59.4033 166.975 59.1886 166.592 59.048C166.209 58.9074 165.801 58.8437 165.393 58.8604C164.986 58.8772 164.585 58.9742 164.215 59.1457C149.485 65.9691 136.663 75.2982 126.105 86.8733C116.877 96.9898 110.068 108.905 105.983 121.792C102.259 100.545 92.6658 80.7882 78.0515 64.7661C66.1192 51.6843 45.0058 38.1221 44.113 37.5511C43.4183 37.1072 42.5758 36.9573 41.7707 37.1345C40.9655 37.3116 40.2637 37.8013 39.8196 38.4958C39.5996 38.8398 39.4495 39.2237 39.3779 39.6257C39.3063 40.0277 39.3146 40.4398 39.4023 40.8385C39.49 41.2373 39.6554 41.6149 39.889 41.9497C40.1226 42.2846 40.4199 42.5701 40.7639 42.7901Z" fill="#7DBE3B"/>
<path d="M176.153 190.207L176.054 190.095C170.49 183.807 162.871 181.257 155.64 182.444C154.371 180.101 152.848 177.885 151.053 175.857C146.102 170.263 139.908 166.933 133.476 165.863C126.536 156.667 116.215 150.828 104.682 150.828C93.149 150.828 82.8281 156.667 75.8885 165.863C69.4562 166.933 63.2621 170.263 58.3117 175.857C56.5172 177.885 54.9932 180.101 53.7246 182.444C46.4933 181.257 38.8745 183.807 33.3101 190.095L33.2115 190.207C31.8218 191.795 31.236 193.752 31.2851 195.659H178.08C178.128 193.752 177.543 191.795 176.153 190.207Z" fill="#C6865C"/>
<path d="M176.153 190.207L176.054 190.095C170.49 183.807 162.871 181.257 155.639 182.444C154.371 180.101 152.847 177.885 151.052 175.857C146.102 170.263 139.907 166.933 133.475 165.863C126.535 156.667 116.215 150.828 104.681 150.828C101.974 150.828 99.3342 151.149 96.789 151.761C104.397 153.587 111.157 158.001 116.322 164.145C117.24 165.237 118.505 165.974 119.889 166.319C125.525 167.725 130.884 170.903 135.268 175.857C136.217 176.931 137.099 178.064 137.907 179.249C139.144 181.059 141.176 182.156 143.368 182.162C149.486 182.176 155.601 184.819 160.269 190.094L160.368 190.206C161.757 191.795 162.343 193.751 162.294 195.659H178.079C178.128 193.752 177.543 191.795 176.153 190.207Z" fill="#B16E3D"/>
<path d="M192.792 198.768H12.7129C11.8885 198.768 11.0978 198.44 10.5148 197.857C9.93187 197.274 9.60437 196.484 9.60437 195.659C9.60437 194.835 9.93187 194.044 10.5148 193.461C11.0978 192.878 11.8885 192.551 12.7129 192.551H192.792C194.509 192.551 195.9 193.943 195.9 195.659C195.9 197.376 194.509 198.768 192.792 198.768Z" fill="#804F2B"/>
</g>
<defs>
<clipPath id="clip0_3_493">
<rect width="206" height="206" fill="white"/>
</clipPath>
</defs>
</svg>
