<svg width="62" height="63" viewBox="0 0 62 63" fill="none" xmlns="http://www.w3.org/2000/svg">
<g opacity="0.5">
<g clip-path="url(#clip0_778_767)">
<path fill-rule="evenodd" clip-rule="evenodd" d="M58.125 43.125C58.125 45.9596 55.1664 48.9375 52.3125 48.9375H36.8125L31 56.6875L25.1875 48.9375H9.6875C6.83356 48.9375 3.875 45.9596 3.875 43.125V10.1875C3.875 7.35294 6.83356 4.375 9.6875 4.375H52.3125C55.1664 4.375 58.125 7.35294 58.125 10.1875V43.125ZM51.6673 0.5H10.3327C4.62677 0.5 0 5.09381 0 10.7629V43.4873C0 49.1526 3.98156 52.8125 9.6875 52.8125H22.5506L31 62.502L39.4494 52.8125H52.3125C58.0184 52.8125 62 49.1526 62 43.4873V10.7629C62 5.09381 57.3732 0.5 51.6673 0.5Z" fill="black"/>
</g>
<path fill-rule="evenodd" clip-rule="evenodd" d="M14.1301 10.755C13.3735 11.5116 13.3735 12.7384 14.1301 13.495L16.0676 15.4325C16.8243 16.1892 18.051 16.1892 18.8077 15.4325C19.5643 14.6759 19.5643 13.4491 18.8077 12.6925L16.8702 10.755C16.1135 9.99834 14.8868 9.99834 14.1301 10.755ZM45.1302 10.755C45.8868 9.99834 47.1136 9.99834 47.8702 10.755C48.6268 11.5116 48.6268 12.7384 47.8702 13.495L45.9327 15.4325C45.1761 16.1892 43.9493 16.1892 43.1927 15.4325C42.4361 14.6759 42.4361 13.4491 43.1927 12.6925L45.1302 10.755ZM45.9327 32.0675L47.8702 34.005C48.6268 34.7616 48.6268 35.9884 47.8702 36.745C47.1136 37.5016 45.8868 37.5016 45.1302 36.745L43.1927 34.8075C42.4361 34.0509 42.4361 32.8241 43.1927 32.0675C43.9493 31.3109 45.1761 31.3109 45.9327 32.0675ZM14.1301 36.745C13.3735 35.9884 13.3735 34.7616 14.1301 34.005L16.0676 32.0675C16.8243 31.3109 18.051 31.3109 18.8077 32.0675C19.5643 32.8241 19.5643 34.0509 18.8077 34.8075L16.8702 36.745C16.1135 37.5016 14.8868 37.5016 14.1301 36.745ZM47.3025 25.6875C48.3726 25.6877 49.24 24.8203 49.24 23.7502C49.2402 22.6801 48.3728 21.8126 47.3027 21.8126L46.5002 21.8125C45.4301 21.8124 44.5627 22.6798 44.5625 23.7499C44.5625 24.8199 45.4299 25.6875 46.5 25.6875H47.3025ZM11.625 24.1515C11.6251 25.2215 12.4926 26.089 13.5626 26.0888H14.3652C15.4352 26.0888 16.3026 25.2211 16.3025 24.1511C16.3025 23.0811 15.435 22.2137 14.3649 22.2137L13.5624 22.2138C12.4923 22.2139 11.6249 23.0814 11.625 24.1515ZM37.6584 33.2804C40.6613 31.1786 42.625 27.6936 42.625 23.75C42.625 17.3297 37.4203 12.125 31 12.125C24.5797 12.125 19.375 17.3297 19.375 23.75C19.375 27.6936 21.3387 31.1786 24.3415 33.2804C23.6593 34.115 23.25 35.1816 23.25 36.3438C23.25 38.6879 24.9153 40.6433 27.1273 41.091C27.1258 41.123 27.125 41.1551 27.125 41.1875C27.125 42.2576 27.9924 43.125 29.0625 43.125H32.9375C34.0076 43.125 34.875 42.2576 34.875 41.1875C34.875 41.1551 34.8742 41.123 34.8727 41.091C37.0847 40.6433 38.75 38.6879 38.75 36.3438C38.75 35.1816 38.3408 34.115 37.6584 33.2804ZM31 31.5C35.2801 31.5 38.75 28.0301 38.75 23.75C38.75 19.4698 35.2801 16 31 16C26.7198 16 23.25 19.4698 23.25 23.75C23.25 28.0301 26.7198 31.5 31 31.5ZM31 35.375H30.8345H28.0938C27.5588 35.375 27.125 35.8088 27.125 36.3438C27.125 36.8787 27.5588 37.3125 28.0938 37.3125H30.8345H31.1655H33.9062C34.4412 37.3125 34.875 36.8787 34.875 36.3438C34.875 35.8088 34.4412 35.375 33.9062 35.375H31.1655H31Z" fill="black"/>
</g>
<defs>
<clipPath id="clip0_778_767">
<rect width="62" height="62" fill="white" transform="translate(0 0.5)"/>
</clipPath>
</defs>
</svg>
