<svg width="52" height="53" viewBox="0 0 52 53" fill="none" xmlns="http://www.w3.org/2000/svg">
<g opacity="0.5" clip-path="url(#clip0_778_751)">
<path fill-rule="evenodd" clip-rule="evenodd" d="M21.8725 40.2312C11.6512 40.2312 3.3654 32.09 3.3654 22.0312C3.3654 11.9725 11.6512 3.81506 21.8725 3.81506C32.0937 3.81506 40.3813 11.9725 40.3813 22.0312C40.3813 32.09 32.0937 40.2312 21.8725 40.2312ZM51.493 49.6562L38.0721 36.445C41.5854 32.6262 43.745 27.5887 43.745 22.0312C43.745 10.1362 33.9527 0.5 21.8725 0.5C9.79224 0.5 0 10.1362 0 22.0312C0 33.91 9.79224 43.5462 21.8725 43.5462C27.092 43.5462 31.8793 41.7425 35.6395 38.7363L49.114 51.9962C49.7721 52.6462 50.8365 52.6462 51.493 51.9962C52.1511 51.3624 52.1511 50.3062 51.493 49.6562Z" fill="black"/>
</g>
<defs>
<clipPath id="clip0_778_751">
<rect width="52" height="52" fill="white" transform="translate(0 0.5)"/>
</clipPath>
</defs>
</svg>
