<svg width="70" height="53" viewBox="0 0 70 53" fill="none" xmlns="http://www.w3.org/2000/svg">
	<path d="M65.3118 21.2235C65.431 20.5835 65.4906 19.9405 65.4906 19.3036C65.4906 14.6985 62.57 10.6722 58.2817 9.20247C56.6866 4.21147 52.0783 0.801514 46.7627 0.801514C41.447 0.801514 36.8372 4.21147 35.2436 9.20247C30.9538 10.6706 28.0347 14.6985 28.0347 19.3036C28.0347 19.9405 28.0943 20.5835 28.212 21.2235C25.7211 23.5136 24.3126 26.6992 24.3126 30.1106C24.3126 36.7878 29.7443 42.2195 36.4215 42.2195C37.7485 42.2195 39.044 42.0062 40.2894 41.5857C41.7371 42.6116 43.4091 43.275 45.1564 43.5291V52.1983H48.3687V43.5292C50.116 43.2751 51.7881 42.6116 53.2358 41.5858C54.4796 42.0063 55.7768 42.2196 57.1037 42.2196C63.7808 42.2196 69.2125 36.7879 69.2125 30.1107C69.2127 26.6991 67.8026 23.5135 65.3118 21.2235ZM57.1039 39.0072C55.8898 39.0072 54.7119 38.7656 53.5982 38.2888L52.6853 37.8966L51.9261 38.5397C50.6901 39.5875 49.164 40.2306 47.5657 40.3937V36.1901L53.8444 29.0157L52.6352 27.9586L47.5658 33.7527V27.8362L52.6289 22.0485L51.4196 20.9913L47.5658 25.3957V16.3265H45.9596V25.3972L42.1042 20.9912L40.8949 22.0484L45.9596 27.8363V33.7528L40.8902 27.9587L39.6809 29.0158L45.9596 36.1901V40.3937C44.3597 40.2306 42.8351 39.5875 41.5976 38.5397L40.84 37.8966L39.9256 38.2887C38.8135 38.7655 37.634 39.0071 36.4216 39.0071C31.5153 39.0071 27.525 35.0168 27.525 30.1105C27.525 27.3483 28.7862 24.787 30.9836 23.0836L31.8432 22.4155L31.5436 21.3709C31.346 20.6838 31.2472 19.9875 31.2472 19.3035C31.2472 15.8559 33.5858 12.8726 36.9346 12.0492L37.8882 11.8139L38.1141 10.8586C39.0676 6.82768 42.6234 4.01381 46.7627 4.01381C50.9019 4.01381 54.4577 6.82768 55.4099 10.8588L55.6357 11.8141L56.5894 12.0494C59.9381 12.8728 62.2784 15.8561 62.2784 19.3037C62.2784 19.9877 62.178 20.684 61.9803 21.3711L61.6808 22.4157L62.5404 23.0838C64.7394 24.7872 66.0005 27.3485 66.0005 30.1107C66.0004 35.0169 62.0085 39.0072 57.1039 39.0072Z" fill="#888888"/>
	<path d="M9.60458 27.3305H0V24.735H9.60458V15.1304H12.2001V24.735H21.8047V27.3305H12.2001V36.9351H9.60458V27.3305Z" fill="#888888"/>
</svg>
